<?xml version="1.0" encoding="UTF-8"?>
<!DOCTYPE svg PUBLIC "-//W3C//DTD SVG 1.1//EN" "http://www.w3.org/Graphics/SVG/1.1/DTD/svg11.dtd">
<svg xmlns="http://www.w3.org/2000/svg" version="1.1" width="250px" height="250px" style="shape-rendering:geometricPrecision; text-rendering:geometricPrecision; image-rendering:optimizeQuality; fill-rule:evenodd; clip-rule:evenodd" xmlns:xlink="http://www.w3.org/1999/xlink">
<g><path style="opacity:0.998" fill="#132427" d="M 104.5,-0.5 C 117.833,-0.5 131.167,-0.5 144.5,-0.5C 176.586,5.603 202.919,21.2697 223.5,46.5C 221.7,47.3081 220.033,46.8081 218.5,45C 217.207,44.51 215.873,44.3433 214.5,44.5C 214.5,45.5 214.5,46.5 214.5,47.5C 215.5,47.5 216.5,47.5 217.5,47.5C 218.377,50.7521 219.043,54.0854 219.5,57.5C 219.546,60.6331 218.546,63.2998 216.5,65.5C 212.287,63.5398 208.954,64.3731 206.5,68C 207.056,68.3826 207.389,68.8826 207.5,69.5C 206.292,70.2341 204.959,70.5674 203.5,70.5C 199.605,69.3656 197.605,71.0322 197.5,75.5C 198.947,80.0644 199.613,84.7311 199.5,89.5C 203.087,89.1951 206.087,90.3617 208.5,93C 206.791,94.9157 205.457,97.0824 204.5,99.5C 203.502,108.81 203.168,118.143 203.5,127.5C 204.833,127.5 206.167,127.5 207.5,127.5C 207.5,132.833 207.5,138.167 207.5,143.5C 218.167,143.5 228.833,143.5 239.5,143.5C 239.5,142.167 239.5,140.833 239.5,139.5C 238.167,139.5 236.833,139.5 235.5,139.5C 235.5,138.167 235.5,136.833 235.5,135.5C 238.167,135.5 240.833,135.5 243.5,135.5C 243.5,134.167 243.5,132.833 243.5,131.5C 244.833,131.5 246.167,131.5 247.5,131.5C 247.83,124.8 247.497,118.134 246.5,111.5C 244.942,116.694 243.942,116.694 243.5,111.5C 240.813,111.664 238.146,111.497 235.5,111C 234.692,110.692 234.025,110.192 233.5,109.5C 235.185,105.403 236.018,101.069 236,96.5C 238.381,95.565 240.881,95.2317 243.5,95.5C 243.229,93.6203 243.896,92.287 245.5,91.5C 247.147,96.0894 248.48,100.756 249.5,105.5C 249.5,118.167 249.5,130.833 249.5,143.5C 240.368,191.628 213.034,224.628 167.5,242.5C 165.638,241.608 163.638,241.441 161.5,242C 159.244,240.501 159.244,238.834 161.5,237C 161.167,236.5 160.833,236 160.5,235.5C 156.361,237.028 152.028,238.028 147.5,238.5C 135.518,239.499 123.518,239.832 111.5,239.5C 111.5,234.167 111.5,228.833 111.5,223.5C 112.833,223.5 114.167,223.5 115.5,223.5C 115.192,225.924 115.526,228.257 116.5,230.5C 117.396,231.506 118.062,231.506 118.5,230.5C 117.691,228.929 117.357,227.262 117.5,225.5C 119.118,228.171 119.785,231.171 119.5,234.5C 140.524,229.273 161.524,223.94 182.5,218.5C 185.391,219.403 188.391,219.736 191.5,219.5C 192.165,212.838 192.831,206.172 193.5,199.5C 193.156,195.405 192.49,191.405 191.5,187.5C 189.549,187.773 188.049,187.107 187,185.5C 185.599,187.192 183.766,187.859 181.5,187.5C 182.774,184.24 183.441,181.074 183.5,178C 187.262,179.175 191.262,179.675 195.5,179.5C 195.5,178.167 195.5,176.833 195.5,175.5C 199.5,175.5 203.5,175.5 207.5,175.5C 207.5,170.167 207.5,164.833 207.5,159.5C 205.167,159.5 202.833,159.5 200.5,159.5C 200.579,162.271 200.079,164.937 199,167.5C 198.209,166.255 197.709,164.922 197.5,163.5C 199.078,152.932 196.911,143.265 191,134.5C 186.333,128.5 181.667,122.5 177,116.5C 170.373,110.457 163.539,104.79 156.5,99.5C 156.667,88.8281 156.5,78.1615 156,67.5C 155.283,68.0442 154.783,68.7109 154.5,69.5C 146.426,74.2882 138.259,78.9549 130,83.5C 113.25,75.3612 95.5838,70.6946 77,69.5C 51.6137,70.5222 41.947,83.1889 48,107.5C 55.7266,123.055 66.2266,136.388 79.5,147.5C 78.1529,146.829 76.9862,146.829 76,147.5C 75.5012,151.486 75.3345,155.486 75.5,159.5C 71.5,159.5 67.5,159.5 63.5,159.5C 63.5,154.167 63.5,148.833 63.5,143.5C 58.1667,143.5 52.8333,143.5 47.5,143.5C 47.5,144.833 47.5,146.167 47.5,147.5C 46.1667,147.5 44.8333,147.5 43.5,147.5C 43.9804,150.685 43.3137,153.519 41.5,156C 42,156.5 42.5,157 43,157.5C 44.049,155.893 45.549,155.227 47.5,155.5C 47.5,158.167 47.5,160.833 47.5,163.5C 48.8333,163.5 50.1667,163.5 51.5,163.5C 51.2444,166.598 50.5778,169.598 49.5,172.5C 37.8316,156.196 32.1649,137.862 32.5,117.5C 27.0411,118.031 21.7078,119.198 16.5,121C 15.3759,121.839 14.7092,123.006 14.5,124.5C 19.817,144.435 24.817,164.435 29.5,184.5C 27.4935,183.321 27.1602,183.821 28.5,186C 27.7511,187.734 27.2511,189.567 27,191.5C 26.51,190.207 26.3433,188.873 26.5,187.5C 25.5,187.5 24.5,187.5 23.5,187.5C 24.0994,190.948 23.0994,193.614 20.5,195.5C 9.96574,179.557 2.96574,162.224 -0.5,143.5C -0.5,130.833 -0.5,118.167 -0.5,105.5C 11.7172,47.6161 46.7172,12.2827 104.5,-0.5 Z"/></g>
<g><path style="opacity:1" fill="#f5f7f8" d="M 131.5,27.5 C 125.735,29.1474 119.735,30.1474 113.5,30.5C 98.0697,31.8999 83.9031,36.8999 71,45.5C 69.413,44.6633 68.5796,43.3299 68.5,41.5C 67.7537,37.4346 66.7537,33.4346 65.5,29.5C 65.8333,28.8333 66.1667,28.1667 66.5,27.5C 86.0458,21.697 105.712,16.3637 125.5,11.5C 126.647,11.8178 127.481,12.4844 128,13.5C 129.171,18.1849 130.338,22.8516 131.5,27.5 Z"/></g>
<g><path style="opacity:1" fill="#3e4c4c" d="M 131.5,27.5 C 132.404,28.209 132.737,29.209 132.5,30.5C 126.167,30.5 119.833,30.5 113.5,30.5C 119.735,30.1474 125.735,29.1474 131.5,27.5 Z"/></g>
<g><path style="opacity:1" fill="#7a8587" d="M 154.5,69.5 C 155.338,69.8417 155.672,70.5084 155.5,71.5C 153.807,72.4749 152.307,73.8082 151,75.5C 145.561,86.2099 139.728,96.7099 133.5,107C 127.5,107.667 121.5,107.667 115.5,107C 108.178,106.001 100.844,105.168 93.5,104.5C 102.592,99.2601 111.592,93.7601 120.5,88C 103.737,80.0088 86.0704,77.1754 67.5,79.5C 58.3181,82.2156 54.4847,88.2156 56,97.5C 56.9344,101.637 58.2678,105.637 60,109.5C 68.6814,121.847 79.0147,132.513 91,141.5C 90.8899,133.839 90.3899,126.172 89.5,118.5C 89.8333,116.833 90.1667,115.167 90.5,113.5C 96.6928,124.716 103.026,135.883 109.5,147C 123.167,147.333 136.833,147.667 150.5,148C 149.09,149.372 147.423,150.205 145.5,150.5C 133.545,148.52 121.212,147.854 108.5,148.5C 108.509,150.308 108.009,151.975 107,153.5C 103.199,159.98 99.3654,166.48 95.5,173C 95.7284,173.399 96.0618,173.565 96.5,173.5C 96.44,174.043 96.1067,174.376 95.5,174.5C 94.7492,173.624 94.2492,172.624 94,171.5C 93.829,166.467 93.329,161.467 92.5,156.5C 87.9634,153.737 83.6301,150.737 79.5,147.5C 66.2266,136.388 55.7266,123.055 48,107.5C 41.947,83.1889 51.6137,70.5222 77,69.5C 95.5838,70.6946 113.25,75.3612 130,83.5C 138.259,78.9549 146.426,74.2882 154.5,69.5 Z"/></g>
<g><path style="opacity:1" fill="#354043" d="M 156.5,99.5 C 156.167,99.5 155.833,99.5 155.5,99.5C 155.5,90.1667 155.5,80.8333 155.5,71.5C 155.672,70.5084 155.338,69.8417 154.5,69.5C 154.783,68.7109 155.283,68.0442 156,67.5C 156.5,78.1615 156.667,88.8281 156.5,99.5 Z"/></g>
<g><path style="opacity:1" fill="#cbd0d2" d="M 155.5,71.5 C 155.5,80.8333 155.5,90.1667 155.5,99.5C 155.5,112.833 155.5,126.167 155.5,139.5C 148.195,129.378 140.528,119.378 132.5,109.5C 126.154,120.198 119.82,130.865 113.5,141.5C 106.401,129.478 99.4006,117.311 92.5,105C 92.7284,104.601 93.0618,104.435 93.5,104.5C 100.844,105.168 108.178,106.001 115.5,107C 121.5,107.667 127.5,107.667 133.5,107C 139.728,96.7099 145.561,86.2099 151,75.5C 152.307,73.8082 153.807,72.4749 155.5,71.5 Z"/></g>
<g><path style="opacity:1" fill="#152626" d="M 223.5,46.5 C 234.286,59.7407 241.62,74.7407 245.5,91.5C 243.896,92.287 243.229,93.6203 243.5,95.5C 240.881,95.2317 238.381,95.565 236,96.5C 236.018,101.069 235.185,105.403 233.5,109.5C 234.025,110.192 234.692,110.692 235.5,111C 238.146,111.497 240.813,111.664 243.5,111.5C 243.942,116.694 244.942,116.694 246.5,111.5C 247.497,118.134 247.83,124.8 247.5,131.5C 246.167,131.5 244.833,131.5 243.5,131.5C 243.5,132.833 243.5,134.167 243.5,135.5C 240.833,135.5 238.167,135.5 235.5,135.5C 235.5,136.833 235.5,138.167 235.5,139.5C 236.833,139.5 238.167,139.5 239.5,139.5C 239.5,140.833 239.5,142.167 239.5,143.5C 228.833,143.5 218.167,143.5 207.5,143.5C 207.5,138.167 207.5,132.833 207.5,127.5C 206.167,127.5 204.833,127.5 203.5,127.5C 203.168,118.143 203.502,108.81 204.5,99.5C 205.457,97.0824 206.791,94.9157 208.5,93C 206.087,90.3617 203.087,89.1951 199.5,89.5C 199.613,84.7311 198.947,80.0644 197.5,75.5C 197.605,71.0322 199.605,69.3656 203.5,70.5C 202.602,71.1577 201.602,71.8243 200.5,72.5C 211.394,92.2099 215.727,113.21 213.5,135.5C 221.057,133.027 228.724,131.027 236.5,129.5C 233.793,117.754 230.793,106.088 227.5,94.5C 227.59,91.8478 226.924,89.5145 225.5,87.5C 224.018,81.1893 222.518,74.8559 221,68.5C 220.107,67.9186 219.107,67.5852 218,67.5C 214.534,68.4089 211.034,69.0756 207.5,69.5C 207.389,68.8826 207.056,68.3826 206.5,68C 208.954,64.3731 212.287,63.5398 216.5,65.5C 218.546,63.2998 219.546,60.6331 219.5,57.5C 219.043,54.0854 218.377,50.7521 217.5,47.5C 216.5,47.5 215.5,47.5 214.5,47.5C 214.5,46.5 214.5,45.5 214.5,44.5C 215.873,44.3433 217.207,44.51 218.5,45C 220.033,46.8081 221.7,47.3081 223.5,46.5 Z"/></g>
<g><path style="opacity:1" fill="#acb2b4" d="M 225.5,87.5 C 226.924,89.5145 227.59,91.8478 227.5,94.5C 226.076,92.4855 225.41,90.1522 225.5,87.5 Z"/></g>
<g><path style="opacity:1" fill="#f8f9fa" d="M 225.5,87.5 C 225.41,90.1522 226.076,92.4855 227.5,94.5C 230.793,106.088 233.793,117.754 236.5,129.5C 228.724,131.027 221.057,133.027 213.5,135.5C 215.727,113.21 211.394,92.2099 200.5,72.5C 201.602,71.8243 202.602,71.1577 203.5,70.5C 204.959,70.5674 206.292,70.2341 207.5,69.5C 211.034,69.0756 214.534,68.4089 218,67.5C 219.107,67.5852 220.107,67.9186 221,68.5C 222.518,74.8559 224.018,81.1893 225.5,87.5 Z"/></g>
<g><path style="opacity:0.999" fill="#142427" d="M 93.5,104.5 C 93.0618,104.435 92.7284,104.601 92.5,105C 99.4006,117.311 106.401,129.478 113.5,141.5C 127.5,141.5 141.5,141.5 155.5,141.5C 156.167,130.659 156.833,119.659 157.5,108.5C 171.638,118.138 182.804,130.471 191,145.5C 194.152,152.534 194.152,159.534 191,166.5C 183.473,173.096 174.64,176.096 164.5,175.5C 159.379,175.606 154.379,174.939 149.5,173.5C 148.614,174.325 148.281,175.325 148.5,176.5C 151.045,177.451 151.045,178.451 148.5,179.5C 147.502,187.472 147.169,195.472 147.5,203.5C 135.5,203.5 123.5,203.5 111.5,203.5C 111.5,204.833 111.5,206.167 111.5,207.5C 110.167,207.5 108.833,207.5 107.5,207.5C 107.5,210.167 107.5,212.833 107.5,215.5C 110.48,215.241 112.313,216.574 113,219.5C 114.596,218.952 115.763,219.618 116.5,221.5C 117.434,222.568 117.768,223.901 117.5,225.5C 117.357,227.262 117.691,228.929 118.5,230.5C 118.062,231.506 117.396,231.506 116.5,230.5C 115.526,228.257 115.192,225.924 115.5,223.5C 114.167,223.5 112.833,223.5 111.5,223.5C 111.5,228.833 111.5,234.167 111.5,239.5C 123.518,239.832 135.518,239.499 147.5,238.5C 152.028,238.028 156.361,237.028 160.5,235.5C 160.833,236 161.167,236.5 161.5,237C 159.244,238.834 159.244,240.501 161.5,242C 163.638,241.441 165.638,241.608 167.5,242.5C 160.054,245.611 152.388,247.944 144.5,249.5C 131.167,249.5 117.833,249.5 104.5,249.5C 69.301,242.575 41.301,224.575 20.5,195.5C 23.0994,193.614 24.0994,190.948 23.5,187.5C 24.5,187.5 25.5,187.5 26.5,187.5C 26.3433,188.873 26.51,190.207 27,191.5C 27.2511,189.567 27.7511,187.734 28.5,186C 27.1602,183.821 27.4935,183.321 29.5,184.5C 37.373,182.794 45.0397,180.46 52.5,177.5C 51.0476,176.06 50.0476,174.394 49.5,172.5C 50.5778,169.598 51.2444,166.598 51.5,163.5C 50.1667,163.5 48.8333,163.5 47.5,163.5C 47.5,160.833 47.5,158.167 47.5,155.5C 45.549,155.227 44.049,155.893 43,157.5C 42.5,157 42,156.5 41.5,156C 43.3137,153.519 43.9804,150.685 43.5,147.5C 44.8333,147.5 46.1667,147.5 47.5,147.5C 47.5,146.167 47.5,144.833 47.5,143.5C 52.8333,143.5 58.1667,143.5 63.5,143.5C 63.5,148.833 63.5,154.167 63.5,159.5C 67.5,159.5 71.5,159.5 75.5,159.5C 75.3345,155.486 75.5012,151.486 76,147.5C 76.9862,146.829 78.1529,146.829 79.5,147.5C 83.6301,150.737 87.9634,153.737 92.5,156.5C 93.329,161.467 93.829,166.467 94,171.5C 94.2492,172.624 94.7492,173.624 95.5,174.5C 96.1067,174.376 96.44,174.043 96.5,173.5C 112.958,166.104 129.292,158.437 145.5,150.5C 147.423,150.205 149.09,149.372 150.5,148C 136.833,147.667 123.167,147.333 109.5,147C 103.026,135.883 96.6928,124.716 90.5,113.5C 90.1667,115.167 89.8333,116.833 89.5,118.5C 90.3899,126.172 90.8899,133.839 91,141.5C 79.0147,132.513 68.6814,121.847 60,109.5C 58.2678,105.637 56.9344,101.637 56,97.5C 54.4847,88.2156 58.3181,82.2156 67.5,79.5C 86.0704,77.1754 103.737,80.0088 120.5,88C 111.592,93.7601 102.592,99.2601 93.5,104.5 Z"/></g>
<g><path style="opacity:1" fill="#eaecee" d="M 155.5,139.5 C 155.5,140.167 155.5,140.833 155.5,141.5C 141.5,141.5 127.5,141.5 113.5,141.5C 119.82,130.865 126.154,120.198 132.5,109.5C 140.528,119.378 148.195,129.378 155.5,139.5 Z"/></g>
<g><path style="opacity:1" fill="#f6f8f8" d="M 49.5,172.5 C 50.0476,174.394 51.0476,176.06 52.5,177.5C 45.0397,180.46 37.373,182.794 29.5,184.5C 24.817,164.435 19.817,144.435 14.5,124.5C 14.7092,123.006 15.3759,121.839 16.5,121C 21.7078,119.198 27.0411,118.031 32.5,117.5C 32.1649,137.862 37.8316,156.196 49.5,172.5 Z"/></g>
<g><path style="opacity:1" fill="#738284" d="M 155.5,99.5 C 155.833,99.5 156.167,99.5 156.5,99.5C 163.539,104.79 170.373,110.457 177,116.5C 181.667,122.5 186.333,128.5 191,134.5C 196.911,143.265 199.078,152.932 197.5,163.5C 190.646,175.091 180.313,180.091 166.5,178.5C 160.391,178.618 154.391,177.951 148.5,176.5C 148.281,175.325 148.614,174.325 149.5,173.5C 154.379,174.939 159.379,175.606 164.5,175.5C 174.64,176.096 183.473,173.096 191,166.5C 194.152,159.534 194.152,152.534 191,145.5C 182.804,130.471 171.638,118.138 157.5,108.5C 156.833,119.659 156.167,130.659 155.5,141.5C 155.5,140.833 155.5,140.167 155.5,139.5C 155.5,126.167 155.5,112.833 155.5,99.5 Z"/></g>
<g><path style="opacity:1" fill="#ccd1d4" d="M 145.5,150.5 C 129.292,158.437 112.958,166.104 96.5,173.5C 96.0618,173.565 95.7284,173.399 95.5,173C 99.3654,166.48 103.199,159.98 107,153.5C 108.009,151.975 108.509,150.308 108.5,148.5C 121.212,147.854 133.545,148.52 145.5,150.5 Z"/></g>
<g><path style="opacity:1" fill="#152627" d="M 182.5,218.5 C 182.279,215.933 181.612,213.599 180.5,211.5C 180.59,208.848 179.924,206.515 178.5,204.5C 178.309,200.926 177.309,197.593 175.5,194.5C 157.021,206.769 136.687,212.102 114.5,210.5C 115.326,214.136 115.992,217.803 116.5,221.5C 115.763,219.618 114.596,218.952 113,219.5C 112.313,216.574 110.48,215.241 107.5,215.5C 107.5,212.833 107.5,210.167 107.5,207.5C 108.833,207.5 110.167,207.5 111.5,207.5C 111.5,206.167 111.5,204.833 111.5,203.5C 123.5,203.5 135.5,203.5 147.5,203.5C 147.169,195.472 147.502,187.472 148.5,179.5C 151.045,178.451 151.045,177.451 148.5,176.5C 154.391,177.951 160.391,178.618 166.5,178.5C 180.313,180.091 190.646,175.091 197.5,163.5C 197.709,164.922 198.209,166.255 199,167.5C 200.079,164.937 200.579,162.271 200.5,159.5C 202.833,159.5 205.167,159.5 207.5,159.5C 207.5,164.833 207.5,170.167 207.5,175.5C 203.5,175.5 199.5,175.5 195.5,175.5C 195.5,176.833 195.5,178.167 195.5,179.5C 191.262,179.675 187.262,179.175 183.5,178C 183.441,181.074 182.774,184.24 181.5,187.5C 183.766,187.859 185.599,187.192 187,185.5C 188.049,187.107 189.549,187.773 191.5,187.5C 192.49,191.405 193.156,195.405 193.5,199.5C 192.831,206.172 192.165,212.838 191.5,219.5C 188.391,219.736 185.391,219.403 182.5,218.5 Z"/></g>
<g><path style="opacity:1" fill="#f8f9fa" d="M 178.5,204.5 C 178.41,207.152 179.076,209.485 180.5,211.5C 181.612,213.599 182.279,215.933 182.5,218.5C 161.524,223.94 140.524,229.273 119.5,234.5C 119.785,231.171 119.118,228.171 117.5,225.5C 117.768,223.901 117.434,222.568 116.5,221.5C 115.992,217.803 115.326,214.136 114.5,210.5C 136.687,212.102 157.021,206.769 175.5,194.5C 177.309,197.593 178.309,200.926 178.5,204.5 Z"/></g>
<g><path style="opacity:1" fill="#b1b8ba" d="M 178.5,204.5 C 179.924,206.515 180.59,208.848 180.5,211.5C 179.076,209.485 178.41,207.152 178.5,204.5 Z"/></g>
</svg>
